<?xml version="1.0" standalone="no"?>
<!DOCTYPE svg PUBLIC "-//W3C//DTD SVG 20010904//EN"
 "http://www.w3.org/TR/2001/REC-SVG-20010904/DTD/svg10.dtd">
<svg version="1.0" xmlns="http://www.w3.org/2000/svg"
 width="300.000000pt" height="300.000000pt" viewBox="0 0 300.000000 300.000000"
 preserveAspectRatio="xMidYMid meet">
<metadata>
Created by potrace 1.11, written by Peter Selinger 2001-2013
</metadata>
<g transform="translate(0.000000,300.000000) scale(0.100000,-0.100000)"
fill="#000000" stroke="none">
<path d="M0 1500 l0 -1500 1500 0 1500 0 0 1500 0 1500 -1500 0 -1500 0 0
-1500z m1973 816 c18 -7 44 -26 59 -42 36 -39 88 -155 88 -199 l0 -35 -54 0
c-60 0 -82 -14 -37 -23 42 -9 101 -64 124 -117 32 -72 29 -245 -6 -375 -127
-465 -449 -834 -794 -911 -105 -23 -240 -16 -308 17 -102 49 -180 163 -211
309 -21 102 -14 302 15 425 40 165 162 373 320 546 171 187 440 373 589 408
59 14 179 12 215 -3z"/>
<path d="M1792 1845 c-146 -53 -278 -167 -392 -336 -73 -107 -84 -119 -110
-119 -20 0 -30 5 -30 15 0 36 -21 8 -73 -97 -66 -132 -127 -309 -127 -364 0
-22 9 -58 20 -82 26 -57 90 -88 148 -73 86 24 246 143 364 271 179 196 336
476 354 635 8 65 -10 129 -43 154 -32 26 -33 26 -111 -4z"/>
</g>
</svg>
